<svg width="20" height="21" viewBox="0 0 20 21" fill="none" xmlns="http://www.w3.org/2000/svg">
<path d="M17.4001 4.34997H14.2501V3.14997C14.2501 3.06747 14.1826 2.99997 14.1001 2.99997H13.0501C12.9676 2.99997 12.9001 3.06747 12.9001 3.14997V4.34997H8.10006V3.14997C8.10006 3.06747 8.03256 2.99997 7.95006 2.99997H6.90006C6.81756 2.99997 6.75006 3.06747 6.75006 3.14997V4.34997H3.60006C3.26819 4.34997 3.00006 4.61809 3.00006 4.94997V17.4C3.00006 17.7318 3.26819 18 3.60006 18H17.4001C17.7319 18 18.0001 17.7318 18.0001 17.4V4.94997C18.0001 4.61809 17.7319 4.34997 17.4001 4.34997ZM16.6501 16.65H4.35006V9.52497H16.6501V16.65ZM4.35006 8.24997V5.69997H6.75006V6.59997C6.75006 6.68247 6.81756 6.74997 6.90006 6.74997H7.95006C8.03256 6.74997 8.10006 6.68247 8.10006 6.59997V5.69997H12.9001V6.59997C12.9001 6.68247 12.9676 6.74997 13.0501 6.74997H14.1001C14.1826 6.74997 14.2501 6.68247 14.2501 6.59997V5.69997H16.6501V8.24997H4.35006Z" fill="#2EB85C"/>
</svg>
