<svg width="105" height="32" viewBox="0 0 105 32" fill="none" xmlns="http://www.w3.org/2000/svg">
<path d="M17.0634 0H4.3342C1.95046 0 0 1.94187 0 4.31511V27.6849C0 30.0581 1.95046 32 4.3342 32H17.0634C19.4471 32 21.3976 30.0581 21.3976 27.6849V4.31511C21.3976 1.94187 19.4471 0 17.0634 0V0Z" fill="url(#paint0_linear_5_921)"/>
<path d="M8.10868 2.12048H13.2889C13.6141 2.12048 13.8795 2.3809 13.8795 2.6988C13.8795 3.01694 13.6138 3.27711 13.2889 3.27711H8.10868C7.78376 3.27711 7.51807 3.01669 7.51807 2.6988C7.51807 2.38065 7.78402 2.12048 8.10868 2.12048V2.12048Z" fill="#00997C"/>
<path fill-rule="evenodd" clip-rule="evenodd" d="M4.32531 4.24097H17.0723C18.285 4.24097 19.2771 5.1957 19.2771 6.36279V24.7516C19.2771 25.9187 18.285 26.8734 17.0723 26.8734H15.4087V26.8916H12.7229V27.1807H15.4087V30.8434L6.81983 26.8734H4.32531C3.11257 26.8734 2.12048 25.9187 2.12048 24.7516V6.36279C2.12048 5.1957 3.11257 4.24097 4.32531 4.24097ZM16.401 9.07818V8.11668H14.0047V9.07818H16.401ZM11.8972 9.07818V8.11668H9.50086V9.07818H11.8972ZM4.99707 20.8505H7.39344V19.847H4.99707V20.8505ZM7.39344 21.1124H4.99707V23.7464H7.39344V21.1124ZM4.99707 14.9991H7.39344V13.9818H4.99707V14.9991ZM7.39344 15.261H4.99707V17.881H7.39344V15.261ZM4.99707 9.33982V12.0158H7.39344V9.33982H4.99707ZM4.99707 8.11668V9.07818H7.39344V8.11668H4.99707ZM9.50086 23.7464H11.8972V21.1124H9.50086V23.7464ZM9.50086 20.8505H11.8972V19.847H9.50086V20.8505ZM9.50086 17.881H11.8972V15.261H9.50086V17.881ZM9.50086 14.9991H11.8972V13.9818H9.50086V14.9991ZM9.50086 9.33982V12.0158H11.8972V9.33982H9.50086ZM14.0047 23.7464H16.401V21.1124H14.0047V23.7464ZM14.0047 20.8505H16.401V19.847H14.0047V20.8505ZM14.0047 17.881H16.401V15.261H14.0047V17.881ZM14.0047 14.9991H16.401V13.9818H14.0047V14.9991ZM14.0047 9.33982V12.0158H16.401V9.33982H14.0047Z" fill="#FEFEFE"/>
<path fill-rule="evenodd" clip-rule="evenodd" d="M54.9013 25.6482V13.0365C54.9013 10.8173 54.2645 9.08529 52.9911 7.81329C51.7973 6.62249 50.0994 6 48.1096 6C46.1199 6 44.422 6.73075 43.2281 7.94856C42.0608 9.16642 41.3976 10.9797 41.3976 13.0365V25.6482H42.6975V18.9905H53.6013V25.6482H54.9013ZM42.6975 13.0365C42.6975 11.3857 43.2016 9.84305 44.0771 8.8417C45.0587 7.7321 46.3852 7.1908 48.1096 7.1908C49.8606 7.1908 51.2136 7.7321 52.1952 8.8417C53.1238 9.89718 53.6013 11.3586 53.6013 13.226V17.8268H42.6975V13.0365ZM60.3119 6.32478H59.0119V18.9635C59.0119 21.0203 59.6752 22.8336 60.8425 24.0514C62.0364 25.2693 63.7077 26 65.6975 26C67.6872 26 69.3851 25.3776 70.5789 24.1868C71.8524 22.9148 72.4891 21.1827 72.4891 18.9635V6.32478H71.1626V18.774C71.1626 20.6414 70.7116 22.1029 69.783 23.1584C68.8015 24.268 67.4484 24.8092 65.6975 24.8092C63.973 24.8092 62.6466 24.2409 61.6649 23.1313C60.7629 22.1029 60.3119 20.7226 60.3119 18.9635V6.32478ZM104.794 26V13.3884C104.794 11.1692 104.158 9.43707 102.884 8.16508C101.69 6.97428 99.9923 6.35184 98.0025 6.35184C96.0128 6.35184 94.3149 7.08254 93.1211 8.3004C91.9537 9.51827 91.2905 11.3316 91.2905 13.3884V26H92.5904V19.3424H103.494V26H104.794ZM92.5904 13.3884C92.5904 11.7375 93.0945 10.1949 93.97 9.19349C94.9516 8.08388 96.2781 7.54264 98.0025 7.54264C99.7535 7.54264 101.107 8.08388 102.088 9.19349C103.017 10.249 103.494 11.7104 103.494 13.5778V18.1786H92.5904V13.3884ZM81.9192 24.8092C80.1962 24.8085 78.8708 24.2402 77.8897 23.1313C76.9877 22.1028 76.5367 20.7226 76.5367 18.9635V6.32478H75.2368V18.9635C75.2368 21.0203 75.9 22.8336 77.0673 24.0514C78.2605 25.2686 79.9308 25.9993 81.9192 26H88.5428V24.7897H81.9192V24.8092Z" fill="#363636"/>
<defs>
<linearGradient id="paint0_linear_5_921" x1="10.3882" y1="0.438188" x2="11.0213" y2="32.4558" gradientUnits="userSpaceOnUse">
<stop stop-color="#3FB288"/>
<stop offset="1" stop-color="#50B589"/>
</linearGradient>
</defs>
</svg>
