<svg width="20" height="21" viewBox="0 0 20 21" fill="none" xmlns="http://www.w3.org/2000/svg">
<path d="M17.004 10.3891L10.3157 17.0775C9.49633 17.8968 8.38503 18.3571 7.22627 18.3571C6.06751 18.3571 4.9562 17.8968 4.13683 17.0775C3.31746 16.2581 2.85715 15.1468 2.85715 13.988C2.85715 12.8293 3.31746 11.718 4.13683 10.8986L10.8252 4.21027C11.3714 3.66403 12.1123 3.35715 12.8848 3.35715C13.6573 3.35715 14.3982 3.66403 14.9444 4.21027C15.4906 4.75652 15.7975 5.49739 15.7975 6.26989C15.7975 7.0424 15.4906 7.78327 14.9444 8.32952L8.2488 15.0178C7.97568 15.291 7.60525 15.4444 7.21899 15.4444C6.83274 15.4444 6.4623 15.291 6.18918 15.0178C5.91606 14.7447 5.76262 14.3743 5.76262 13.988C5.76262 13.6018 5.91606 13.2313 6.18918 12.9582L12.368 6.78662" stroke="#2EB85C" stroke-linecap="round" stroke-linejoin="round"/>
</svg>
