<svg width="20" height="21" viewBox="0 0 20 21" fill="none" xmlns="http://www.w3.org/2000/svg">
<path d="M14.1818 17V15.5556C14.1818 14.7894 13.8945 14.0546 13.383 13.5128C12.8716 12.971 12.1779 12.6667 11.4546 12.6667H6.00001C5.27669 12.6667 4.583 12.971 4.07154 13.5128C3.56007 14.0546 3.27274 14.7894 3.27274 15.5556V17M18.2727 17V15.5556C18.2723 14.9155 18.0712 14.2937 17.7009 13.7878C17.3307 13.2819 16.8124 12.9206 16.2273 12.7606M13.5 4.09389C14.0867 4.253 14.6066 4.6144 14.9779 5.12111C15.3493 5.62783 15.5508 6.25104 15.5508 6.8925C15.5508 7.53396 15.3493 8.15717 14.9779 8.66389C14.6066 9.1706 14.0867 9.532 13.5 9.69111M11.4546 6.88889C11.4546 8.48438 10.2335 9.77778 8.72728 9.77778C7.22105 9.77778 6.00001 8.48438 6.00001 6.88889C6.00001 5.2934 7.22105 4 8.72728 4C10.2335 4 11.4546 5.2934 11.4546 6.88889Z" stroke="#2EB85C" stroke-linecap="round" stroke-linejoin="round"/>
</svg>
